{"scene":0,"scenes":[{"nodes":[0]}],"asset":{"version":"2.0","generator":"https://github.com/mikedh/trimesh"},"accessors":[{"componentType":5125,"type":"SCALAR","bufferView":0,"count":327528,"max":[58418],"min":[0]},{"componentType":5126,"type":"VEC3","byteOffset":0,"bufferView":1,"count":58419,"max":[0.38143792748451233,0.1996275782585144,0.23989294469356537],"min":[-0.3836529552936554,-0.17301996052265167,-0.2852449119091034]},{"componentType":5126,"type":"VEC2","byteOffset":0,"bufferView":3,"count":58419,"max":[1.0015126466751099,1.0011322498321533],"min":[0.0004439474723767489,0.005519866943359375]}],"meshes":[{"name":"0aad9436-ead8-4651-81a1-8b435012d799_reduced.ply","extras":{"processed":true,"file_path":"D:\\02_DATASETS\\geometry-features-v1\\meshes\\original\\components\\0aad9436-ead8-4651-81a1-8b435012d799_reduced.ply","file_name":"0aad9436-ead8-4651-81a1-8b435012d799_reduced.ply"},"primitives":[{"attributes":{"POSITION":1,"TEXCOORD_0":2},"indices":0,"mode":4,"material":0}]}],"images":[{"bufferView":2,"mimeType":"image/png"}],"textures":[{"source":0}],"materials":[{"pbrMetallicRoughness":{"baseColorTexture":{"index":0},"baseColorFactor":[0.4,0.4,0.4,1.0],"roughnessFactor":0.9036020036098448},"doubleSided":false}],"nodes":[{"name":"world","children":[1]},{"name":"0aad9436-ead8-4651-81a1-8b435012d799_reduced.ply","mesh":0}],"buffers":[{"uri":"gltf_buffer_0.bin","byteLength":1310112},{"uri":"gltf_buffer_1.bin","byteLength":701028},{"uri":"gltf_buffer_2.bin","byteLength":80},{"uri":"gltf_buffer_3.bin","byteLength":467352}],"bufferViews":[{"buffer":0,"byteOffset":0,"byteLength":1310112},{"buffer":1,"byteOffset":0,"byteLength":701028},{"buffer":2,"byteOffset":0,"byteLength":80},{"buffer":3,"byteOffset":0,"byteLength":467352}]}