{"scene":0,"scenes":[{"nodes":[0]}],"asset":{"version":"2.0","generator":"https://github.com/mikedh/trimesh"},"accessors":[{"componentType":5125,"type":"SCALAR","bufferView":0,"count":89676,"max":[17379],"min":[0]},{"componentType":5126,"type":"VEC3","byteOffset":0,"bufferView":1,"count":17380,"max":[0.44016754627227783,0.12584693729877472,0.20462943613529205],"min":[-0.43181368708610535,-0.12263745069503784,-0.2171575427055359]},{"componentType":5126,"type":"VEC2","byteOffset":0,"bufferView":3,"count":17380,"max":[1.018445611000061,1.008500576019287],"min":[-0.0035610056947916746,-0.03468680381774902]}],"meshes":[{"name":"0dd38d21-87ea-4c1d-a0b8-7245b45cd633_reduced.ply","extras":{"processed":true,"file_path":"D:\\02_DATASETS\\geometry-features-v1\\meshes\\original\\components\\0dd38d21-87ea-4c1d-a0b8-7245b45cd633_reduced.ply","file_name":"0dd38d21-87ea-4c1d-a0b8-7245b45cd633_reduced.ply"},"primitives":[{"attributes":{"POSITION":1,"TEXCOORD_0":2},"indices":0,"mode":4,"material":0}]}],"images":[{"bufferView":2,"mimeType":"image/png"}],"textures":[{"source":0}],"materials":[{"pbrMetallicRoughness":{"baseColorTexture":{"index":0},"baseColorFactor":[0.4,0.4,0.4,1.0],"roughnessFactor":0.9036020036098448},"doubleSided":false}],"nodes":[{"name":"world","children":[1]},{"name":"0dd38d21-87ea-4c1d-a0b8-7245b45cd633_reduced.ply","mesh":0}],"buffers":[{"uri":"gltf_buffer_0.bin","byteLength":358704},{"uri":"gltf_buffer_1.bin","byteLength":208560},{"uri":"gltf_buffer_2.bin","byteLength":80},{"uri":"gltf_buffer_3.bin","byteLength":139040}],"bufferViews":[{"buffer":0,"byteOffset":0,"byteLength":358704},{"buffer":1,"byteOffset":0,"byteLength":208560},{"buffer":2,"byteOffset":0,"byteLength":80},{"buffer":3,"byteOffset":0,"byteLength":139040}]}