{"scene":0,"scenes":[{"nodes":[0]}],"asset":{"version":"2.0","generator":"https://github.com/mikedh/trimesh"},"accessors":[{"componentType":5125,"type":"SCALAR","bufferView":0,"count":421878,"max":[83221],"min":[0]},{"componentType":5126,"type":"VEC3","byteOffset":0,"bufferView":1,"count":83222,"max":[0.42102673649787903,0.055184636265039444,0.2851238548755646],"min":[-0.34947001934051514,-0.05079308897256851,-0.3434487283229828]},{"componentType":5126,"type":"VEC2","byteOffset":0,"bufferView":3,"count":83222,"max":[1.2268776893615723,1.064720630645752],"min":[-0.14819708466529846,-0.0519787073135376]}],"meshes":[{"name":"153b9ae8-f858-4e8f-a7c2-bbec658c4a60_reduced.ply","extras":{"processed":true,"file_path":"D:\\02_DATASETS\\geometry-features-v1\\meshes\\original\\components\\153b9ae8-f858-4e8f-a7c2-bbec658c4a60_reduced.ply","file_name":"153b9ae8-f858-4e8f-a7c2-bbec658c4a60_reduced.ply"},"primitives":[{"attributes":{"POSITION":1,"TEXCOORD_0":2},"indices":0,"mode":4,"material":0}]}],"images":[{"bufferView":2,"mimeType":"image/png"}],"textures":[{"source":0}],"materials":[{"pbrMetallicRoughness":{"baseColorTexture":{"index":0},"baseColorFactor":[0.4,0.4,0.4,1.0],"roughnessFactor":0.9036020036098448},"doubleSided":false}],"nodes":[{"name":"world","children":[1]},{"name":"153b9ae8-f858-4e8f-a7c2-bbec658c4a60_reduced.ply","mesh":0}],"buffers":[{"uri":"gltf_buffer_0.bin","byteLength":1687512},{"uri":"gltf_buffer_1.bin","byteLength":998664},{"uri":"gltf_buffer_2.bin","byteLength":80},{"uri":"gltf_buffer_3.bin","byteLength":665776}],"bufferViews":[{"buffer":0,"byteOffset":0,"byteLength":1687512},{"buffer":1,"byteOffset":0,"byteLength":998664},{"buffer":2,"byteOffset":0,"byteLength":80},{"buffer":3,"byteOffset":0,"byteLength":665776}]}