{"scene":0,"scenes":[{"nodes":[0]}],"asset":{"version":"2.0","generator":"https://github.com/mikedh/trimesh"},"accessors":[{"componentType":5125,"type":"SCALAR","bufferView":0,"count":429546,"max":[76990],"min":[0]},{"componentType":5126,"type":"VEC3","byteOffset":0,"bufferView":1,"count":76991,"max":[0.42058828473091125,0.1383582055568695,0.2839449942111969],"min":[-0.3573598861694336,-0.10175412148237228,-0.29669490456581116]},{"componentType":5126,"type":"VEC2","byteOffset":0,"bufferView":3,"count":76991,"max":[0.9861498475074768,1.0021233558654785],"min":[-0.002152456436306238,-0.002197742462158203]}],"meshes":[{"name":"b9521122-5d01-4392-bd51-026b9cc5fbf0_reduced.ply","extras":{"processed":true,"file_path":"D:\\02_DATASETS\\geometry-features-v1\\meshes\\original\\components\\b9521122-5d01-4392-bd51-026b9cc5fbf0_reduced.ply","file_name":"b9521122-5d01-4392-bd51-026b9cc5fbf0_reduced.ply"},"primitives":[{"attributes":{"POSITION":1,"TEXCOORD_0":2},"indices":0,"mode":4,"material":0}]}],"images":[{"bufferView":2,"mimeType":"image/png"}],"textures":[{"source":0}],"materials":[{"pbrMetallicRoughness":{"baseColorTexture":{"index":0},"baseColorFactor":[0.4,0.4,0.4,1.0],"roughnessFactor":0.9036020036098448},"doubleSided":false}],"nodes":[{"name":"world","children":[1]},{"name":"b9521122-5d01-4392-bd51-026b9cc5fbf0_reduced.ply","mesh":0}],"buffers":[{"uri":"gltf_buffer_0.bin","byteLength":1718184},{"uri":"gltf_buffer_1.bin","byteLength":923892},{"uri":"gltf_buffer_2.bin","byteLength":80},{"uri":"gltf_buffer_3.bin","byteLength":615928}],"bufferViews":[{"buffer":0,"byteOffset":0,"byteLength":1718184},{"buffer":1,"byteOffset":0,"byteLength":923892},{"buffer":2,"byteOffset":0,"byteLength":80},{"buffer":3,"byteOffset":0,"byteLength":615928}]}