{"scene":0,"scenes":[{"nodes":[0]}],"asset":{"version":"2.0","generator":"https://github.com/mikedh/trimesh"},"accessors":[{"componentType":5125,"type":"SCALAR","bufferView":0,"count":110544,"max":[19435],"min":[0]},{"componentType":5126,"type":"VEC3","byteOffset":0,"bufferView":1,"count":19436,"max":[0.43928471207618713,0.10766631364822388,0.20295846462249756],"min":[-0.4467190206050873,-0.11075229197740555,-0.20605337619781494]},{"componentType":5126,"type":"VEC2","byteOffset":0,"bufferView":3,"count":19436,"max":[0.9909465312957764,1.0006530284881592],"min":[-0.0009996783919632435,-0.0027229785919189453]}],"meshes":[{"name":"6dc08bb0-4ae3-42e6-8cd9-23b49f624706_reduced.ply","extras":{"processed":true,"file_path":"D:\\02_DATASETS\\geometry-features-v1\\meshes\\original\\components\\6dc08bb0-4ae3-42e6-8cd9-23b49f624706_reduced.ply","file_name":"6dc08bb0-4ae3-42e6-8cd9-23b49f624706_reduced.ply"},"primitives":[{"attributes":{"POSITION":1,"TEXCOORD_0":2},"indices":0,"mode":4,"material":0}]}],"images":[{"bufferView":2,"mimeType":"image/png"}],"textures":[{"source":0}],"materials":[{"pbrMetallicRoughness":{"baseColorTexture":{"index":0},"baseColorFactor":[0.4,0.4,0.4,1.0],"roughnessFactor":0.9036020036098448},"doubleSided":false}],"nodes":[{"name":"world","children":[1]},{"name":"6dc08bb0-4ae3-42e6-8cd9-23b49f624706_reduced.ply","mesh":0}],"buffers":[{"uri":"gltf_buffer_0.bin","byteLength":442176},{"uri":"gltf_buffer_1.bin","byteLength":233232},{"uri":"gltf_buffer_2.bin","byteLength":80},{"uri":"gltf_buffer_3.bin","byteLength":155488}],"bufferViews":[{"buffer":0,"byteOffset":0,"byteLength":442176},{"buffer":1,"byteOffset":0,"byteLength":233232},{"buffer":2,"byteOffset":0,"byteLength":80},{"buffer":3,"byteOffset":0,"byteLength":155488}]}