{"scene":0,"scenes":[{"nodes":[0]}],"asset":{"version":"2.0","generator":"https://github.com/mikedh/trimesh"},"accessors":[{"componentType":5125,"type":"SCALAR","bufferView":0,"count":472434,"max":[83798],"min":[0]},{"componentType":5126,"type":"VEC3","byteOffset":0,"bufferView":1,"count":83799,"max":[0.4465174078941345,0.11049558222293854,0.21077077090740204],"min":[-0.42319074273109436,-0.11609785258769989,-0.22770746052265167]},{"componentType":5126,"type":"VEC2","byteOffset":0,"bufferView":3,"count":83799,"max":[0.9808585047721863,1.0010154247283936],"min":[-0.001638111425563693,-0.00039887428283691406]}],"meshes":[{"name":"c4dfa0c4-4691-4dbb-a834-62240e3e4972_reduced.ply","extras":{"processed":true,"file_path":"D:\\02_DATASETS\\geometry-features-v1\\meshes\\original\\components\\c4dfa0c4-4691-4dbb-a834-62240e3e4972_reduced.ply","file_name":"c4dfa0c4-4691-4dbb-a834-62240e3e4972_reduced.ply"},"primitives":[{"attributes":{"POSITION":1,"TEXCOORD_0":2},"indices":0,"mode":4,"material":0}]}],"images":[{"bufferView":2,"mimeType":"image/png"}],"textures":[{"source":0}],"materials":[{"pbrMetallicRoughness":{"baseColorTexture":{"index":0},"baseColorFactor":[0.4,0.4,0.4,1.0],"roughnessFactor":0.9036020036098448},"doubleSided":false}],"nodes":[{"name":"world","children":[1]},{"name":"c4dfa0c4-4691-4dbb-a834-62240e3e4972_reduced.ply","mesh":0}],"buffers":[{"uri":"gltf_buffer_0.bin","byteLength":1889736},{"uri":"gltf_buffer_1.bin","byteLength":1005588},{"uri":"gltf_buffer_2.bin","byteLength":80},{"uri":"gltf_buffer_3.bin","byteLength":670392}],"bufferViews":[{"buffer":0,"byteOffset":0,"byteLength":1889736},{"buffer":1,"byteOffset":0,"byteLength":1005588},{"buffer":2,"byteOffset":0,"byteLength":80},{"buffer":3,"byteOffset":0,"byteLength":670392}]}