{"scene":0,"scenes":[{"nodes":[0]}],"asset":{"version":"2.0","generator":"https://github.com/mikedh/trimesh"},"accessors":[{"componentType":5125,"type":"SCALAR","bufferView":0,"count":243690,"max":[43090],"min":[0]},{"componentType":5126,"type":"VEC3","byteOffset":0,"bufferView":1,"count":43091,"max":[0.3759749233722687,0.10346868634223938,0.27524274587631226],"min":[-0.39302730560302734,-0.10966193675994873,-0.32742711901664734]},{"componentType":5126,"type":"VEC2","byteOffset":0,"bufferView":3,"count":43091,"max":[0.9925128221511841,0.9996806979179382],"min":[-0.00058384781004861,-0.0003000497817993164]}],"meshes":[{"name":"eb011945-0315-449c-8117-c4e1e4292c9b_reduced.ply","extras":{"processed":true,"file_path":"D:\\02_DATASETS\\geometry-features-v1\\meshes\\original\\components\\eb011945-0315-449c-8117-c4e1e4292c9b_reduced.ply","file_name":"eb011945-0315-449c-8117-c4e1e4292c9b_reduced.ply"},"primitives":[{"attributes":{"POSITION":1,"TEXCOORD_0":2},"indices":0,"mode":4,"material":0}]}],"images":[{"bufferView":2,"mimeType":"image/png"}],"textures":[{"source":0}],"materials":[{"pbrMetallicRoughness":{"baseColorTexture":{"index":0},"baseColorFactor":[0.4,0.4,0.4,1.0],"roughnessFactor":0.9036020036098448},"doubleSided":false}],"nodes":[{"name":"world","children":[1]},{"name":"eb011945-0315-449c-8117-c4e1e4292c9b_reduced.ply","mesh":0}],"buffers":[{"uri":"gltf_buffer_0.bin","byteLength":974760},{"uri":"gltf_buffer_1.bin","byteLength":517092},{"uri":"gltf_buffer_2.bin","byteLength":80},{"uri":"gltf_buffer_3.bin","byteLength":344728}],"bufferViews":[{"buffer":0,"byteOffset":0,"byteLength":974760},{"buffer":1,"byteOffset":0,"byteLength":517092},{"buffer":2,"byteOffset":0,"byteLength":80},{"buffer":3,"byteOffset":0,"byteLength":344728}]}